PathFileType	4	(X/Y/Z)	Kaydara																																																																																																																									
DataRate	CameraRate	NumFrames	NumMarkers	Units	OrigDataRate	OrigDataStartFrame	OrigNumFrames																																																																																																																					
30	30	5	41	mm	30	137	180																																																																																																																					
Frame#	Time	SALE_LFHD			SALE_RFHD			SALE_LBHD			SALE_RBHD			SALE_LFTShould			SALE_RFTShould			SALE_LRRShould			SALE_RRRShould			SALE_T10			SALE_STRN			SALE_TRUN			SALE_LSHO			SALE_LUPA			SALE_LELB			SALE_LFRM			SALE_LWRA			SALE_LWRB			SALE_LFIN			SALE_RSHO			SALE_RUPA			SALE_RELB			SALE_RFRM			SALE_RWRB			SALE_RFIN			SALE_LFWT			SALE_RFWT			SALE_LBWT			SALE_RBWT			SALE_LTHI			SALE_LKNE			SALE_RWRA			SALE_LSHN			SALE_LANK			SALE_LHEE			SALE_LTOE			SALE_RTHI			SALE_RKNE			SALE_RSHN			SALE_RANK			SALE_RHEE			SALE_RTOE		
		X1	Y1	Z1	X2	Y2	Z2	X3	Y3	Z3	X4	Y4	Z4	X5	Y5	Z5	X6	Y6	Z6	X7	Y7	Z7	X8	Y8	Z8	X9	Y9	Z9	X10	Y10	Z10	X11	Y11	Z11	X12	Y12	Z12	X13	Y13	Z13	X14	Y14	Z14	X15	Y15	Z15	X16	Y16	Z16	X17	Y17	Z17	X18	Y18	Z18	X19	Y19	Z19	X20	Y20	Z20	X21	Y21	Z21	X22	Y22	Z22	X23	Y23	Z23	X24	Y24	Z24	X25	Y25	Z25	X26	Y26	Z26	X27	Y27	Z27	X28	Y28	Z28	X29	Y29	Z29	X30	Y30	Z30	X31	Y31	Z31	X32	Y32	Z32	X33	Y33	Z33	X34	Y34	Z34	X35	Y35	Z35	X36	Y36	Z36	X37	Y37	Z37	X38	Y38	Z38	X39	Y39	Z39	X40	Y40	Z40	X41	Y41	Z41
																																																																																																																												
136	4.55	202.81658	1590.0061	611.85925	72.18204	1607.20398	612.15588	191.45679	1536.10092	489.61826	66.03717	1553.32977	496.10695	188.6529	1323.93936	635.63519	48.87711	1313.5881	623.85487	191.75961	1392.0697	523.48381	40.19026	1386.74805	520.16338	127.96591	1241.36414	443.26115	116.02971	1243.57346	670.94009	115.73784	1154.16977	703.83949	308.22681	1362.21756	582.44183	360.37476	1152.08458	555.02998	356.97361	1044.49806	535.03822	375.05913	958.36601	620.74608	302.1604	891.48308	750.9877	366.12633	855.88913	728.81042	363.45192	859.66576	791.98029	-54.23194	1345.27237	553.62873	-66.87383	1137.39113	446.10073	-107.80093	1033.38577	455.38086	-101.23913	930.92613	412.10869	-133.28974	791.20338	401.60667	-145.44896	730.17403	428.45909	263.96158	913.77213	606.09417	-9.75338	930.38139	616.99593	203.87699	967.60803	439.51702	27.63294	978.9814	439.76753	233.51528	614.68285	435.79433	236.34792	435.71014	494.41292	-95.6939	774.54674	465.29045	243.93002	293.42371	334.83212	259.6612	225.62309	157.82971	231.71421	253.73081	79.27298	225.47543	87.49529	181.50101	-31.06809	665.50682	552.67189	22.28656	553.12355	709.42184	73.94909	350.52017	737.98752	21.80123	94.8882	728.08968	39.65214	48.77721	851.53679	63.33375	34.60637	658.91861
137	4.583	193.99818	1598.51761	664.72549	62.62586	1612.08466	666.21452	182.66853	1540.95032	543.78456	56.80802	1554.9968	551.38966	185.73038	1330.47287	689.13788	46.2399	1318.3374	680.74165	187.01223	1401.92459	578.92807	34.98584	1394.48883	579.19037	122.85396	1252.25037	496.43856	114.33076	1249.16145	725.83099	115.00076	1158.84689	756.55655	304.33893	1371.44638	636.51779	357.32777	1161.41106	606.75407	353.58513	1056.45012	577.48486	373.63873	960.2533	650.69572	301.34733	870.47485	769.59511	367.07581	842.14783	741.31943	363.3596	830.16373	802.6973	-58.14884	1351.20377	614.86649	-74.45807	1141.56578	512.18735	-111.5261	1035.62569	526.76289	-104.88788	930.2961	488.34358	-132.92841	788.82057	487.79167	-143.21617	729.85756	519.87041	260.49582	917.11876	657.23076	-16.21268	941.29807	666.95129	203.14074	967.9892	488.5746	25.85453	986.95259	490.27367	223.69947	603.85513	520.79502	233.33776	434.49318	603.19946	-93.26348	777.82562	551.23329	239.16765	308.34532	433.20259	251.16261	263.50637	248.58463	215.81762	297.25739	175.04637	230.7411	120.29953	257.86863	-36.9058	668.20641	590.94585	13.0525	549.44473	734.50493	67.27196	349.53114	755.27168	21.06814	93.07463	729.82513	36.161	48.72821	848.92189	63.52587	34.79193	659.20128
138	4.617	188.16137	1610.20401	718.25203	56.66938	1620.89157	720.86945	177.18872	1552.30179	597.54414	51.19831	1563.47214	606.13182	185.53799	1340.439	740.1133	46.2573	1326.55441	734.14146	183.08146	1411.29257	629.35822	30.2907	1402.74643	633.41663	116.79319	1261.34949	548.02452	115.49963	1256.17165	777.17537	117.71237	1164.82765	805.4071	302.62905	1380.15244	682.74712	356.38859	1170.89806	646.5979	350.24582	1063.3551	618.78021	372.87872	961.57692	676.20438	303.5408	850.4409	777.32101	371.51829	830.95306	746.15654	364.2844	804.02939	802.9248	-60.63252	1356.87302	672.1093	-82.87311	1140.07797	576.97121	-115.79444	1034.59526	599.63997	-109.80186	927.76848	567.03678	-132.72979	785.47173	578.25153	-141.78197	730.92476	617.13646	259.71422	926.01013	703.93661	-17.12346	947.826	718.79814	196.60656	977.13051	536.69189	19.25036	996.99677	541.29108	216.18553	604.93935	605.82375	236.53528	449.73568	708.18031	-90.05831	780.8242	640.46799	238.33286	326.10455	540.16453	239.74716	279.73568	355.21114	200.07582	311.65085	283.16826	223.07159	136.69146	367.07718	-40.08735	676.73645	622.15473	7.82594	545.9528	756.97655	61.82617	348.16319	766.53946	19.84425	92.66044	729.10881	35.84643	47.96132	850.15823	63.83734	34.54907	658.78265
139	4.65	186.03294	1619.38095	772.62878	54.72358	1629.65302	776.20514	174.55158	1564.97162	650.74142	48.52527	1575.6189	660.25452	185.88884	1349.33121	787.75276	46.91279	1335.88577	785.16899	178.57145	1420.0679	677.15424	26.26186	1410.99319	684.91226	109.63363	1269.42383	598.39897	117.37703	1265.58044	826.62003	121.17144	1175.4097	857.03415	299.98447	1389.42429	725.07126	352.6371	1180.82558	683.29369	343.38444	1073.13271	654.86435	372.2683	967.06436	696.08971	308.25144	836.74454	774.49547	377.31377	825.68138	740.84778	368.36884	786.8248	792.08557	-63.09074	1365.27283	725.95512	-90.76739	1142.01187	641.37039	-118.75538	1038.24539	673.39569	-112.27272	929.12186	647.95509	-131.79876	787.26151	672.72507	-140.31206	739.61563	719.62929	256.94744	938.44551	751.93161	-19.29809	952.72171	768.75809	190.02321	989.89059	586.28315	15.30301	1006.20964	592.56359	217.1257	614.13567	686.76132	238.44769	471.84647	809.36394	-85.89733	789.40285	732.68707	233.60195	333.91125	652.01164	228.49468	273.79532	470.94437	186.37508	298.37503	396.47259	211.88869	133.52124	497.8809	-39.38637	687.09274	647.21992	0.26765	543.90099	772.97119	59.48168	347.46773	774.90089	19.42238	92.78254	729.50699	35.48567	47.8174	849.95163	64.2613	34.70115	658.69751
140	4.683	186.40993	1624.10934	826.79825	55.31919	1635.44174	831.89034	173.48276	1574.74274	703.03902	47.68689	1586.08109	713.9872	185.81863	1356.87393	833.42369	45.89162	1343.99307	835.86693	173.3293	1425.48828	723.21686	22.91975	1417.64496	735.13412	101.73618	1274.76097	647.70462	118.11871	1275.2697	875.68581	122.99061	1185.21446	906.89728	296.69514	1396.3147	766.06583	347.39765	1188.63823	720.64468	336.21155	1083.08571	688.12424	370.69714	975.70656	711.13014	314.95018	831.35872	769.52293	381.78528	828.3918	730.02884	376.53305	780.37834	774.6743	-65.3348	1374.55734	779.26659	-92.44233	1149.10454	703.03307	-120.38794	1045.9967	743.34213	-112.94755	933.57269	728.85239	-129.40927	794.64798	769.66125	-136.79692	755.36346	823.77136	252.44965	948.12714	803.52684	-25.84848	954.20586	815.75485	187.75831	995.77202	636.4854	14.62552	1010.27443	642.28874	226.9878	622.95029	761.01357	238.89366	494.90131	903.43979	-80.95424	803.84865	827.08023	228.09555	333.98521	765.73044	217.82856	249.66148	594.03534	172.955	261.93438	516.14552	202.16545	119.36268	646.39832	-39.57236	692.32277	679.3824	-0.594	541.0091	793.0024	57.29772	346.6151	783.62907	19.42884	92.96536	729.5166	35.21335	47.66507	849.64897	64.73471	35.24847	658.4729
